<svg width="86" height="113" viewBox="0 0 86 113" fill="none" xmlns="http://www.w3.org/2000/svg">
<mask id="path-1-inside-1_116_245" fill="white">
<path d="M9.32555 105.641L9.71673 105.899L10.0747 106.135L10.3995 106.348L10.679 106.538L10.9318 106.702L12.4689 107.704L14.0361 108.674L15.6055 109.617L17.1647 110.545L18.7053 111.477L20.2327 112.44C20.8925 112.856 21.7701 112.656 22.1888 111.993C22.6075 111.331 22.4118 110.452 21.752 110.035L20.2025 109.057L18.6314 108.105L17.0667 107.174L15.5167 106.244L13.9938 105.304L12.4871 104.323L12.2519 104.163L11.9603 103.972L11.6328 103.757L11.2776 103.524L10.8919 103.269L10.4824 102.99L9.5912 102.396L8.63751 101.738L7.66191 101.042L5.68475 99.5497L4.23443 98.3071L4.98247 98.4397L7.09875 98.7102L9.23546 98.8852L11.387 98.973L13.5616 98.9673L15.7456 98.8707L17.9386 98.6952L20.1437 98.4307L22.3524 98.0837L24.5609 97.6595L26.7738 97.1574L28.9811 96.5745L31.1825 95.9227L33.3791 95.1948L35.5624 94.3972L37.7334 93.5344L39.8911 92.6018L42.0291 91.6032L44.1462 90.5458L46.2417 89.425L48.309 88.2446L50.3471 87.0119L52.357 85.7195L54.3275 84.3719L56.2651 82.9776L58.1613 81.5308L60.0144 80.0345L61.8252 78.4931L63.5864 76.9058L65.2959 75.2753L66.9548 73.6062L68.5574 71.8947L70.1001 70.1465L71.5855 68.3633L73.0063 66.5442L74.3558 64.6929L75.637 62.8112L76.8525 60.901L77.9857 58.963L79.0467 57.0002L80.0252 55.0097L80.9158 52.9998L81.7258 50.9714L82.4441 48.917L83.066 46.8497L83.5988 44.7703L84.0315 42.6714L84.3565 40.5761L84.5726 38.7954L84.7485 37.044L84.8843 35.3099L84.9818 33.5903L85.0384 31.8833L85.0521 30.1916L85.0267 28.5098L84.9595 26.8359L84.8513 25.1746L84.704 23.5232L84.512 21.8778L84.2764 20.2431L84.0007 18.6136L83.6823 16.9875L83.3192 15.3673L82.9153 13.7477L82.4659 12.1296L81.9738 10.5147L81.4408 8.90031L80.8595 7.28549L80.2345 5.66931L79.5679 4.04901L78.8548 2.42548L78.1027 0.811768C77.7707 0.103766 76.9258 -0.196037 76.2151 0.134091C75.5052 0.468865 75.1998 1.30992 75.5318 2.01792L76.2713 3.60272L76.9589 5.16844L77.602 6.72816L78.2034 8.28376L78.7603 9.83334L79.2735 11.3816L79.7459 12.9303L80.1746 14.4778L80.5625 16.0257L80.9123 17.576L81.2166 19.1278L81.479 20.6875L81.7042 22.2543L81.8866 23.8244L82.03 25.4043L82.1343 26.9941L82.1995 28.5936L82.2237 30.2058L82.2096 31.8325L82.1547 33.4717L82.0596 35.1282L81.929 36.8011L81.7584 38.4912L81.5533 40.1903L81.248 42.1735L80.8426 44.1371L80.3397 46.0951L79.7534 48.0449L79.0752 49.9808L78.308 51.9047L77.4611 53.8148L76.5309 55.7045L75.5181 57.5787L74.4341 59.4326L73.2751 61.2598L72.0448 63.0668L70.7433 64.8415L69.379 66.5896L67.9481 68.3046L66.4608 69.9893L64.9136 71.6372L63.3091 73.2502L61.6567 74.8266L59.9528 76.3597L58.2 77.8514L56.4077 79.3001L54.5723 80.6992L52.6964 82.0504L50.7876 83.355L48.8469 84.6054L46.8714 85.7997L44.8713 86.9408L42.8458 88.0242L40.7968 89.0469L38.7316 90.0101L36.6494 90.9091L34.5521 91.741L32.4452 92.5097L30.3324 93.2096L28.2129 93.8361L26.0904 94.3958L23.9724 94.8774L21.8569 95.2839L19.7468 95.6171L17.6477 95.8687L15.5596 96.0387L13.4853 96.1289L11.4332 96.1331L9.39867 96.0519L7.38442 95.8874L5.40079 95.6304L4.89468 95.5409L5.2649 95.2827L6.32245 94.6217L6.96051 94.2258L7.54851 93.8202L8.13852 93.3998L8.75014 92.9536L9.38148 92.4843L10.0325 91.992L10.7024 91.4721L12.0593 90.3952L13.4466 89.25L14.839 88.0555L16.1759 86.8355L17.5334 85.597L19.9428 83.1469L21.8294 80.8756C22.3274 80.275 22.2451 79.3847 21.6418 78.8848C21.0385 78.3849 20.15 78.4645 19.652 79.065L17.848 81.2388L15.5532 83.5684L14.2669 84.7378L12.9627 85.9276L11.6246 87.078L10.2767 88.1893L8.95161 89.2432L8.31074 89.7384L7.68305 90.2142L7.07508 90.667L6.48684 91.0967L5.92397 91.4951L5.41262 91.8476L4.82597 92.2096L3.69741 92.9154L2.40541 93.8137L1.7345 94.3411L1.12459 94.8978L0.66494 95.4718L0.399287 95.862L0.191097 96.2629L0.0463177 96.7314L4.03847e-05 97.2871L0.132338 97.9077L0.497848 98.513L1.98927 100.112L3.92026 101.767L5.98497 103.326L7.02145 104.064L8.00558 104.742L8.91046 105.359L9.33673 105.637L9.32555 105.641Z"/>
</mask>
<path d="M9.32555 105.641L9.71673 105.899L10.0747 106.135L10.3995 106.348L10.679 106.538L10.9318 106.702L12.4689 107.704L14.0361 108.674L15.6055 109.617L17.1647 110.545L18.7053 111.477L20.2327 112.44C20.8925 112.856 21.7701 112.656 22.1888 111.993C22.6075 111.331 22.4118 110.452 21.752 110.035L20.2025 109.057L18.6314 108.105L17.0667 107.174L15.5167 106.244L13.9938 105.304L12.4871 104.323L12.2519 104.163L11.9603 103.972L11.6328 103.757L11.2776 103.524L10.8919 103.269L10.4824 102.99L9.5912 102.396L8.63751 101.738L7.66191 101.042L5.68475 99.5497L4.23443 98.3071L4.98247 98.4397L7.09875 98.7102L9.23546 98.8852L11.387 98.973L13.5616 98.9673L15.7456 98.8707L17.9386 98.6952L20.1437 98.4307L22.3524 98.0837L24.5609 97.6595L26.7738 97.1574L28.9811 96.5745L31.1825 95.9227L33.3791 95.1948L35.5624 94.3972L37.7334 93.5344L39.8911 92.6018L42.0291 91.6032L44.1462 90.5458L46.2417 89.425L48.309 88.2446L50.3471 87.0119L52.357 85.7195L54.3275 84.3719L56.2651 82.9776L58.1613 81.5308L60.0144 80.0345L61.8252 78.4931L63.5864 76.9058L65.2959 75.2753L66.9548 73.6062L68.5574 71.8947L70.1001 70.1465L71.5855 68.3633L73.0063 66.5442L74.3558 64.6929L75.637 62.8112L76.8525 60.901L77.9857 58.963L79.0467 57.0002L80.0252 55.0097L80.9158 52.9998L81.7258 50.9714L82.4441 48.917L83.066 46.8497L83.5988 44.7703L84.0315 42.6714L84.3565 40.5761L84.5726 38.7954L84.7485 37.044L84.8843 35.3099L84.9818 33.5903L85.0384 31.8833L85.0521 30.1916L85.0267 28.5098L84.9595 26.8359L84.8513 25.1746L84.704 23.5232L84.512 21.8778L84.2764 20.2431L84.0007 18.6136L83.6823 16.9875L83.3192 15.3673L82.9153 13.7477L82.4659 12.1296L81.9738 10.5147L81.4408 8.90031L80.8595 7.28549L80.2345 5.66931L79.5679 4.04901L78.8548 2.42548L78.1027 0.811768C77.7707 0.103766 76.9258 -0.196037 76.2151 0.134091C75.5052 0.468865 75.1998 1.30992 75.5318 2.01792L76.2713 3.60272L76.9589 5.16844L77.602 6.72816L78.2034 8.28376L78.7603 9.83334L79.2735 11.3816L79.7459 12.9303L80.1746 14.4778L80.5625 16.0257L80.9123 17.576L81.2166 19.1278L81.479 20.6875L81.7042 22.2543L81.8866 23.8244L82.03 25.4043L82.1343 26.9941L82.1995 28.5936L82.2237 30.2058L82.2096 31.8325L82.1547 33.4717L82.0596 35.1282L81.929 36.8011L81.7584 38.4912L81.5533 40.1903L81.248 42.1735L80.8426 44.1371L80.3397 46.0951L79.7534 48.0449L79.0752 49.9808L78.308 51.9047L77.4611 53.8148L76.5309 55.7045L75.5181 57.5787L74.4341 59.4326L73.2751 61.2598L72.0448 63.0668L70.7433 64.8415L69.379 66.5896L67.9481 68.3046L66.4608 69.9893L64.9136 71.6372L63.3091 73.2502L61.6567 74.8266L59.9528 76.3597L58.2 77.8514L56.4077 79.3001L54.5723 80.6992L52.6964 82.0504L50.7876 83.355L48.8469 84.6054L46.8714 85.7997L44.8713 86.9408L42.8458 88.0242L40.7968 89.0469L38.7316 90.0101L36.6494 90.9091L34.5521 91.741L32.4452 92.5097L30.3324 93.2096L28.2129 93.8361L26.0904 94.3958L23.9724 94.8774L21.8569 95.2839L19.7468 95.6171L17.6477 95.8687L15.5596 96.0387L13.4853 96.1289L11.4332 96.1331L9.39867 96.0519L7.38442 95.8874L5.40079 95.6304L4.89468 95.5409L5.2649 95.2827L6.32245 94.6217L6.96051 94.2258L7.54851 93.8202L8.13852 93.3998L8.75014 92.9536L9.38148 92.4843L10.0325 91.992L10.7024 91.4721L12.0593 90.3952L13.4466 89.25L14.839 88.0555L16.1759 86.8355L17.5334 85.597L19.9428 83.1469L21.8294 80.8756C22.3274 80.275 22.2451 79.3847 21.6418 78.8848C21.0385 78.3849 20.15 78.4645 19.652 79.065L17.848 81.2388L15.5532 83.5684L14.2669 84.7378L12.9627 85.9276L11.6246 87.078L10.2767 88.1893L8.95161 89.2432L8.31074 89.7384L7.68305 90.2142L7.07508 90.667L6.48684 91.0967L5.92397 91.4951L5.41262 91.8476L4.82597 92.2096L3.69741 92.9154L2.40541 93.8137L1.7345 94.3411L1.12459 94.8978L0.66494 95.4718L0.399287 95.862L0.191097 96.2629L0.0463177 96.7314L4.03847e-05 97.2871L0.132338 97.9077L0.497848 98.513L1.98927 100.112L3.92026 101.767L5.98497 103.326L7.02145 104.064L8.00558 104.742L8.91046 105.359L9.33673 105.637L9.32555 105.641Z" fill="#B5C36A" stroke="white" stroke-width="100" mask="url(#path-1-inside-1_116_245)"/>
</svg>
