<svg width="1440" height="1639" viewBox="0 0 1440 1639" fill="none" xmlns="http://www.w3.org/2000/svg">
<path d="M1457.99 3.23109C1449.94 6.14908 1444.04 10.6451 1438.26 15.0534C1429.17 21.9789 1420.59 28.5162 1403.16 28.5162C1385.73 28.5162 1377.14 21.9789 1368.05 15.0534C1358.35 7.65192 1348.32 0 1328.36 0C1308.4 0 1298.38 7.65192 1288.67 15.0534C1279.59 21.9789 1271.01 28.5162 1253.57 28.5162C1236.13 28.5162 1227.55 21.9789 1218.47 15.0534C1208.76 7.65192 1198.73 0 1178.78 0C1158.84 0 1148.79 7.65192 1139.09 15.0534C1130.01 21.9789 1121.43 28.5162 1103.99 28.5162C1086.56 28.5162 1077.97 21.9789 1068.89 15.0534C1059.19 7.65192 1049.15 0 1029.2 0C1009.24 0 999.207 7.65192 989.506 15.0534C980.431 21.9789 971.851 28.5162 954.409 28.5162C936.966 28.5162 928.385 21.9789 919.311 15.0534C909.6 7.65192 899.567 0 879.61 0C879.398 0 879.196 0.0125236 878.994 0.062618H873.968C872.322 0.125236 870.758 0.250472 869.243 0.413279C854.203 2.07892 845.572 8.66633 837.194 15.0534C828.109 21.9789 819.529 28.5162 802.086 28.5162C784.644 28.5162 776.063 21.9789 766.989 15.0534C757.288 7.65192 747.244 0 727.298 0C707.352 0 697.308 7.65192 687.598 15.0534C678.523 21.9789 669.943 28.5162 652.5 28.5162C635.057 28.5162 626.487 21.9789 617.402 15.0534C607.702 7.65192 597.668 0 577.712 0C557.755 0 547.722 7.65192 538.021 15.0534C528.936 21.9789 520.366 28.5162 502.923 28.5162C485.481 28.5162 476.9 21.9789 467.816 15.0534C458.115 7.65192 448.081 0 428.135 0C408.189 0 398.145 7.65192 388.434 15.0534C379.36 21.9789 370.78 28.5162 353.337 28.5162C335.894 28.5162 327.314 21.9789 318.239 15.0534C308.539 7.65192 298.495 0 278.549 0C258.602 0 248.559 7.65192 238.858 15.0534C229.773 21.9789 221.203 28.5162 203.76 28.5162C186.317 28.5162 177.737 21.9789 168.653 15.0534C158.952 7.65192 148.918 0 128.962 0C109.006 0 98.9821 7.65192 89.2715 15.0534C80.1967 21.9789 71.6166 28.5162 54.1738 28.5162C36.7309 28.5162 28.1508 21.9789 19.0761 15.0534C12.747 10.2193 6.27661 5.28496 -3 2.4421C-2.96972 22.5675 -2.85868 1618.89 -2.60632 1639H727.187H1456.98C1457.24 1619.12 1457.81 23.0559 1458 3.21856L1457.99 3.23109Z" fill="#9F275E"/>
</svg>
