<?xml version="1.0" encoding="UTF-8"?>
<svg id="Livello_1" xmlns="http://www.w3.org/2000/svg" version="1.1" viewBox="0 0 1460.5 968.4">
  <!-- Generator: Adobe Illustrator 29.1.0, SVG Export Plug-In . SVG Version: 2.1.0 Build 142)  -->
  <defs>
    <style>
      .st0 {
        fill: #9f275e;
      }
    </style>
  </defs>
  <path class="st0" d="M1461,1.9c-8.1,1.7-13.9,4.3-19.7,6.9-9.1,4-17.7,7.8-35.1,7.8s-26-3.8-35.1-7.8C1361.3,4.4,1351.3,0,1331.4,0s-30,4.4-39.7,8.7c-9.1,4-17.7,7.8-35.1,7.8s-26-3.8-35.1-7.8C1211.8,4.4,1201.7,0,1181.8,0s-30,4.4-39.7,8.7c-9.1,4-17.7,7.8-35.1,7.8s-26-3.8-35.1-7.8C1062.2,4.4,1052.2,0,1032.2,0s-30,4.4-39.7,8.7c-9.1,4-17.7,7.8-35.1,7.8s-26-3.8-35.1-7.8C912.6,4.4,902.6,0,882.6,0s-.4,0-.6,0h-5c-1.6,0-3.2.1-4.7.2-15,1-23.7,4.8-32,8.5-9.1,4-17.7,7.8-35.1,7.8s-26-3.8-35.1-7.8C760.3,4.4,750.2,0,730.3,0s-30,4.4-39.7,8.7c-9.1,4-17.7,7.8-35.1,7.8s-26-3.8-35.1-7.8C610.7,4.4,600.7,0,580.7,0s-30,4.4-39.7,8.7c-9.1,4-17.7,7.8-35.1,7.8s-26-3.8-35.1-7.8C461.1,4.4,451.1,0,431.1,0s-30,4.4-39.7,8.7c-9.1,4-17.7,7.8-35.1,7.8s-26-3.8-35.1-7.8C311.5,4.4,301.5,0,281.5,0s-30,4.4-39.7,8.7c-9.1,4-17.7,7.8-35.1,7.8s-26-3.8-35.1-7.8C162,4.4,151.9,0,132,0s-30,4.4-39.7,8.7c-9.1,4-17.7,7.8-35.1,7.8s-26-3.8-35.1-7.8C15.7,5.9,9.3,3.1,0,1.4c0,11.7.1,936.9.4,948.6h1459.6c.3-11.5.8-936.6,1-948.1h0Z"/>
  <path class="st0" d="M0,966.5c8.1-1.7,13.9-4.3,19.7-6.9,9.1-4,17.7-7.8,35.1-7.8s26,3.8,35.1,7.8c9.7,4.3,19.7,8.7,39.7,8.7s30-4.4,39.7-8.7c9.1-4,17.7-7.8,35.1-7.8s26,3.8,35.1,7.8c9.7,4.3,19.7,8.7,39.7,8.7s30-4.4,39.7-8.7c9.1-4,17.7-7.8,35.1-7.8s26,3.8,35.1,7.8c9.7,4.3,19.7,8.7,39.7,8.7s30-4.4,39.7-8.7c9.1-4,17.7-7.8,35.1-7.8s26,3.8,35.1,7.8c9.7,4.3,19.7,8.7,39.7,8.7s.4,0,.6,0h5c1.6,0,3.2-.1,4.7-.2,15-1,23.7-4.8,32-8.5,9.1-4,17.7-7.8,35.1-7.8s26,3.8,35.1,7.8c9.7,4.3,19.7,8.7,39.7,8.7s30-4.4,39.7-8.7c9.1-4,17.7-7.8,35.1-7.8s26,3.8,35.1,7.8c9.7,4.3,19.7,8.7,39.7,8.7s30-4.4,39.7-8.7c9.1-4,17.7-7.8,35.1-7.8s26,3.8,35.1,7.8c9.7,4.3,19.7,8.7,39.7,8.7s30-4.4,39.7-8.7c9.1-4,17.7-7.8,35.1-7.8s26,3.8,35.1,7.8c9.7,4.3,19.7,8.7,39.7,8.7s30-4.4,39.7-8.7c9.1-4,17.7-7.8,35.1-7.8s26,3.8,35.1,7.8c9.7,4.3,19.7,8.7,39.7,8.7s30-4.4,39.7-8.7c9.1-4,17.7-7.8,35.1-7.8s26,3.8,35.1,7.8c6.3,2.8,12.8,5.7,22.1,7.3,0-11.7-.1-936.9-.4-948.6H1C.8,29.9.2,955,0,966.5h0Z"/>
</svg>