<svg width="11" height="14" viewBox="0 0 11 14" fill="none" xmlns="http://www.w3.org/2000/svg">
<path d="M4.16602 0.014573C4.16602 0.014573 7.24639 1.53793 8.35693 2.70322C9.56451 3.96097 10.2022 5.38473 10.3176 7.00145C10.4204 8.60438 9.94453 10.1733 8.91139 11.3865C8.91139 11.3865 8.48255 11.8464 8.34253 11.9874C7.0056 13.331 5.08345 13.7351 3.37939 13.1964C2.70535 12.9915 2.06225 12.6355 1.50702 12.1098C-0.432753 10.2737 -0.504772 7.21502 1.31905 5.28661C1.43311 5.16673 1.55864 5.05617 1.68559 4.94714L1.71013 4.92442C2.36069 4.35326 2.97909 3.772 3.56085 3.18194C4.13124 2.5796 4.39339 1.91515 4.33941 1.2016C4.32069 0.95682 4.24209 0.653534 4.05766 0.294417C4.03277 0.249087 4.008 0.200804 3.98311 0.155474C3.93397 0.0870268 4.02439 -0.0337548 4.16624 0.00866537L4.16602 0.014573Z" fill="#F6AC60"/>
</svg>
