<svg width="11" height="14" viewBox="0 0 11 14" fill="none" xmlns="http://www.w3.org/2000/svg">
<path d="M4.166 0.0145724C4.166 0.0145724 7.24638 1.53793 8.35692 2.70322C9.56449 3.96097 10.2021 5.38473 10.3176 7.00145C10.4203 8.60438 9.94452 10.1733 8.91138 11.3865C8.91138 11.3865 8.48253 11.8464 8.34252 11.9874C7.00558 13.331 5.08343 13.7351 3.37938 13.1964C2.70534 12.9915 2.06224 12.6355 1.507 12.1098C-0.432768 10.2737 -0.504786 7.21502 1.31904 5.28661C1.43309 5.16673 1.55863 5.05617 1.68558 4.94714L1.71012 4.92442C2.36067 4.35326 2.97907 3.772 3.56083 3.18193C4.13123 2.5796 4.39338 1.91515 4.33939 1.2016C4.32068 0.95682 4.24208 0.653534 4.05764 0.294418C4.03276 0.249088 4.00798 0.200804 3.9831 0.155474C3.93395 0.0870268 4.02438 -0.0337548 4.16623 0.00866472L4.166 0.0145724Z" fill="#D84085"/>
</svg>
