<svg width="11" height="14" viewBox="0 0 11 14" fill="none" xmlns="http://www.w3.org/2000/svg">
<path d="M4.166 0.0148455C4.166 0.0148455 7.24637 1.5382 8.35691 2.70348C9.56448 3.96124 10.2021 5.38499 10.3176 7.00171C10.4203 8.60464 9.94451 10.1735 8.91137 11.3868C8.91137 11.3868 8.48252 11.8466 8.34251 11.9877C7.00558 13.3313 5.08343 13.7353 3.37938 13.1966C2.70534 12.9918 2.06224 12.6358 1.50701 12.1101C-0.432759 10.274 -0.504777 7.21528 1.31904 5.28687C1.4331 5.16699 1.55863 5.05643 1.68558 4.94741L1.71012 4.92468C2.36068 4.35353 2.97907 3.77226 3.56083 3.1822C4.13123 2.57987 4.39338 1.91542 4.33939 1.20187C4.32068 0.957091 4.24208 0.653807 4.05764 0.29469C4.03276 0.24936 4.00798 0.201077 3.9831 0.155747C3.93395 0.0873 4.02438 -0.0334816 4.16623 0.00893786L4.166 0.0148455Z" fill="#B5C36A"/>
</svg>
