<svg width="36" height="36" viewBox="0 0 36 36" fill="none" xmlns="http://www.w3.org/2000/svg">
<path d="M35.6802 32.8944C35.6802 32.8944 25.4097 36.212 20.3277 36.0003C14.8549 35.8238 10.2705 34.0238 6.46792 30.6356C2.73643 27.2826 0.35538 22.7297 0.035538 17.7532C0.035538 17.7532 0 15.7767 0 15.1767C0.071076 9.24733 3.51826 4.16497 8.52912 1.65909C10.5192 0.635561 12.7581 0.000266714 15.1392 0.000266714C23.5262 -0.105616 30.4205 6.56497 30.5271 14.8591C30.5271 15.3885 30.4916 15.8826 30.4561 16.412V16.5179C30.2428 19.2003 30.1007 21.8473 30.1007 24.4591C30.1362 27.0356 30.9891 29.1179 32.695 30.6003C33.2636 31.0944 34.1165 31.6238 35.3248 32.012C35.4669 32.0473 35.6446 32.1179 35.7868 32.1532C36.0355 32.1885 36.1066 32.6826 35.6802 32.8944Z" fill="#F7AD61"/>
</svg>
