<svg width="136" height="134" viewBox="0 0 136 134" fill="none" xmlns="http://www.w3.org/2000/svg">
<g clip-path="url(#clip0_111_204)">
<path d="M22.4755 95.1753C22.1109 94.749 21.9432 94.1607 22.0752 93.5717L30.7071 54.9069C30.9294 53.9116 31.9169 53.2843 32.9122 53.5067C33.9075 53.7291 34.5349 54.7167 34.3127 55.712L25.6808 94.3768C25.4585 95.3721 24.471 95.9994 23.4757 95.777C23.0694 95.6867 22.7265 95.4687 22.4755 95.1753Z" fill="white"/>
<path d="M33.6636 96.9343L59.9344 20.0687L33.6617 96.9358L33.6636 96.9343Z" fill="white"/>
<path d="M32.2609 98.1371C31.8506 97.6573 31.6969 96.9771 31.9156 96.3362L54.2666 34.1003C54.5968 33.1341 55.646 32.6202 56.6123 32.9505C57.5785 33.2809 58.0926 34.3303 57.7624 35.2965L35.4096 97.5339C35.0794 98.5002 34.0301 99.0141 33.0639 98.6837C32.7401 98.5741 32.4658 98.3804 32.2591 98.1387L32.2609 98.1371Z" fill="white"/>
<path d="M44.1583 102.418C43.6927 101.873 43.5684 101.082 43.9057 100.4L60.4338 66.8178C60.884 65.9023 61.9932 65.5256 62.9069 65.9776C63.8225 66.428 64.1995 67.5338 63.7474 68.4509L47.2193 102.033C46.7691 102.949 45.6599 103.325 44.7462 102.873C44.514 102.759 44.3161 102.602 44.1583 102.418Z" fill="white"/>
<path d="M56.0242 108.096L119.089 47.8972L56.0226 108.094L56.0242 108.096Z" fill="white"/>
<path d="M54.6184 109.295C53.9855 108.555 54.0345 107.439 54.7471 106.76L102.01 62.6003C102.749 61.8951 103.918 61.9244 104.622 62.6613C105.325 63.3759 105.3 64.5674 104.561 65.2726L57.2978 109.432C56.5591 110.137 55.3903 110.108 54.6865 109.371C54.6644 109.345 54.6405 109.321 54.6184 109.295Z" fill="white"/>
<path d="M61.9735 117.85C61.9151 117.782 61.8607 117.707 61.8099 117.629C61.2677 116.763 61.5304 115.625 62.3925 115.083L95.0389 94.6199C95.9044 94.0778 97.0447 94.3391 97.5853 95.2028C98.1275 96.0684 97.8648 97.2069 97.0028 97.7493L64.3564 118.212C63.5705 118.705 62.5575 118.533 61.9719 117.848L61.9735 117.85Z" fill="white"/>
</g>
<defs>
<clipPath id="clip0_111_204">
<rect width="85" height="106" fill="white" transform="translate(80.5568) rotate(49.4615)"/>
</clipPath>
</defs>
</svg>
