<svg width="110" height="143" viewBox="0 0 110 143" fill="none" xmlns="http://www.w3.org/2000/svg">
<path d="M44.1912 0.156207C44.1912 0.156207 76.8664 16.3153 88.6465 28.6761C101.456 42.0179 108.22 57.1204 109.445 74.2699C110.534 91.273 105.487 107.915 94.528 120.785C94.528 120.785 89.979 125.662 88.4938 127.159C74.3122 141.411 53.9229 145.697 35.8471 139.983C28.6971 137.81 21.8754 134.034 15.9858 128.457C-4.59048 108.981 -5.35442 76.5353 13.9919 56.0796C15.2017 54.808 16.5333 53.6352 17.88 52.4787L18.1403 52.2376C25.0411 46.1791 31.6008 40.0133 37.7718 33.7542C43.8223 27.3649 46.6031 20.3167 46.0304 12.7477C45.8319 10.1511 44.9982 6.93402 43.0418 3.12467C42.7778 2.64383 42.515 2.13167 42.251 1.65083C41.7297 0.924764 42.6889 -0.356436 44.1936 0.0935392L44.1912 0.156207Z" fill="#9F275E"/>
</svg>
