<svg width="54" height="54" viewBox="0 0 54 54" fill="none" xmlns="http://www.w3.org/2000/svg">
<path d="M37.2153 8.84697C28.6022 1.08004 15.5668 1.29791 7.14821 9.25258C2.74434 13.413 0.130405 19.1681 0.00680344 25.3566C-0.208354 34.2245 4.69449 42.4828 12.6164 46.2979C14.4842 47.1972 16.6998 46.7939 18.4119 45.6257C19.973 44.5619 21.0465 42.71 21.0167 40.6425C20.9938 38.7998 21.1541 37.087 21.8041 35.3834C23.0035 32.2474 25.7021 30.1498 29.1103 29.874C30.6233 26.5642 32.2667 23.4931 34.1505 20.48C34.487 19.9399 34.9653 19.5645 35.4872 19.2307L37.5518 15.0702C36.7484 13.0491 36.6179 10.9191 37.2153 8.84697ZM13.3351 34.3659C11.3758 34.753 9.45085 33.4874 9.0274 31.4849C8.61311 29.5194 9.8125 27.4658 11.9137 27.0463C13.9943 26.6291 15.8484 28.0128 16.2352 29.9714C16.638 32.0017 15.3356 33.9719 13.3351 34.3659ZM15.4478 21.5879C13.4999 22.0491 11.504 20.8416 11.0279 18.8228C10.5747 16.8967 11.6803 14.8199 13.7471 14.3193C15.8392 13.8117 17.7756 15.1467 18.2105 17.1818C18.6248 19.1287 17.4186 21.1243 15.4478 21.5879ZM27.9407 19.6549C25.9539 19.882 24.1411 18.4519 23.8779 16.4354C23.6169 14.4282 24.9811 12.479 27.1144 12.231C29.2202 11.9876 30.9483 13.5359 31.1818 15.506C31.4244 17.5665 29.9572 19.4254 27.9407 19.6549Z" fill="white"/>
<path d="M45.1373 24.7518C45.3547 25.1482 45.4875 25.5932 45.3616 26.022C44.5101 28.954 43.5213 31.7214 42.3494 34.5515C40.223 39.6877 37.49 44.4554 34.0475 48.7897C32.6833 50.5095 30.486 53.0104 28.4534 53.8425C25.2055 55.1752 26.3202 47.5566 26.5307 46.1683C27.3296 40.8906 28.8608 35.8425 31.0719 30.9983C32.5414 27.7789 34.1551 24.7472 36.0068 21.7549C36.2472 21.3679 36.6157 21.1755 37.0826 21.1013L38.9092 17.4114C40.8273 19.7709 43.5923 21.041 46.6526 20.9506L45.1373 24.7518Z" fill="white"/>
<path d="M53.05 13.501C51.8049 17.6244 47.4719 19.6756 43.6243 18.176C39.827 16.695 37.9524 12.108 39.8201 8.37175C40.7769 6.45725 42.4066 5.29372 44.4185 4.78844C47.0485 4.12555 48.3211 3.0779 49.7403 0.709116C50.1248 0.0694039 50.7588 -0.213367 51.4478 0.17834C53.1164 1.13095 53.7459 3.21002 53.9107 5.06657C54.1601 7.91746 53.8946 10.7035 53.05 13.501Z" fill="white"/>
</svg>
