<svg width="47" height="57" viewBox="0 0 47 57" fill="none" xmlns="http://www.w3.org/2000/svg">
<g clip-path="url(#clip0_111_72)">
<path d="M37.6971 34.2912L33.0377 43.7451L13.9578 43.7383L9.30744 34.2889C9.12547 33.9581 9.12323 33.6455 9.31418 33.2965L21.5961 8.34971C21.7443 8.05085 22.0633 7.9345 22.3172 7.97328C22.6092 8.01663 22.8474 8.30864 22.8474 8.6942V30.0797C22.8474 30.3512 22.6205 30.6273 22.4273 30.7208C21.2636 31.2729 20.6929 32.4934 20.9603 33.7299C21.2141 34.8912 22.2543 35.7581 23.4472 35.7809C24.6536 35.806 25.723 34.9756 26.0173 33.8143C26.334 32.5619 25.7679 31.2866 24.5772 30.7231C24.3795 30.6296 24.1526 30.3512 24.1526 30.0797V8.6942C24.1526 8.3634 24.3615 8.05769 24.584 7.9961C24.885 7.91169 25.2377 8.00979 25.4039 8.34971L37.6881 33.2942C37.87 33.6638 37.8723 33.9375 37.6971 34.2912Z" fill="white"/>
<path d="M46.9887 23.8129V27.8236C46.991 28.2274 46.6517 28.5011 46.2788 28.5011H42.444C42.0912 28.4989 41.7722 28.1954 41.7722 27.8327V23.8198C41.7722 23.5141 42.1047 23.2152 42.399 23.2061L43.7088 23.165C43.4257 13.1224 35.9851 4.76806 26.152 3.49962L26.0936 4.70646C26.0779 5.0327 25.7521 5.3019 25.4174 5.3019H21.5825C21.2455 5.3019 20.9243 5.0327 20.9086 4.70646L20.8479 3.5019C11.0193 4.76578 3.56972 13.127 3.29114 23.165L4.63682 23.2084C4.89293 23.2152 5.22767 23.5278 5.22767 23.8175V27.8304C5.22767 28.1932 4.90866 28.4989 4.5582 28.4989H0.723341C0.343675 28.5011 0.0111859 28.2297 0.0111859 27.8213V23.9407C0.00669278 23.457 0.309977 23.2106 0.752546 23.1992L1.98141 23.1627C2.23751 14.2312 7.73257 6.49962 15.9482 3.34449L5.14679 3.31939C4.74691 4.65627 3.57421 5.44791 2.25773 5.27452C1.0109 5.11255 0.0224186 4.02205 -4.68565e-05 2.70114C-0.0225123 1.39164 0.914298 0.250951 2.15664 0.0456274C3.48884 -0.175665 4.73343 0.58403 5.14005 1.98707H20.8434L20.9018 0.691255C20.9198 0.296578 21.1737 0 21.5915 0H25.4129C25.815 0 26.0936 0.298859 26.1026 0.691255L26.1318 1.98707H41.8374C42.2575 0.670722 43.4122 -0.15057 44.7489 0.0296578C46.0137 0.198479 46.9797 1.30494 47 2.60989C47.0224 3.93536 46.0654 5.05095 44.8455 5.25855C43.4841 5.49125 42.2642 4.69049 41.8531 3.31939L31.0674 3.34905C39.2628 6.50418 44.7601 14.2266 45.0185 23.165L46.3597 23.2038C46.636 23.2129 46.9887 23.489 46.9887 23.8129Z" fill="white"/>
<path d="M35.2483 49.6928C35.2483 50.0578 34.972 50.3384 34.5856 50.3703H12.4144C12.0258 50.3384 11.7562 50.0578 11.7539 49.6928V45.7072C11.7966 45.3787 12.0437 45.0662 12.4279 45.0662H34.5743C34.9293 45.0662 35.2461 45.3833 35.2461 45.7072V49.6928H35.2483Z" fill="white"/>
<path d="M33.2893 56.2997C33.2893 56.6647 33.0624 56.9453 32.6176 57.0001H14.3217C13.9578 56.9316 13.7107 56.6579 13.7107 56.3042L13.7196 51.7004H33.2826L33.2893 56.2997Z" fill="white"/>
</g>
<defs>
<clipPath id="clip0_111_72">
<rect width="47" height="57" fill="white"/>
</clipPath>
</defs>
</svg>
