<svg width="51" height="54" viewBox="0 0 51 54" fill="none" xmlns="http://www.w3.org/2000/svg">
<path d="M50.9927 19.9998H0.00742689L0.00251572 49.8565C-0.0294069 52.1699 1.67722 53.9676 3.94618 54.0001H47.0539C49.2762 53.9676 50.9608 52.2475 50.9976 49.9842L50.9927 19.9998ZM36.7552 34.356L32.8828 38.1517C32.4899 38.5372 32.3622 39.0855 32.4555 39.6338L33.3297 44.8841C33.4353 45.5201 33.1701 46.126 32.7379 46.4565C32.2541 46.8295 31.6034 46.8921 31.0534 46.5967L26.4442 44.1205C25.9826 43.8701 25.3834 43.8626 24.966 44.0854L20.1481 46.6643C19.6153 46.9522 18.9719 46.8646 18.5201 46.5341C18.0854 46.2136 17.7883 45.6152 17.8914 44.9993L18.7975 39.5037C18.8835 38.9754 18.66 38.4446 18.3015 38.0916L14.6059 34.4837C14.1295 34.018 13.9158 33.4422 14.1221 32.7336C14.2744 32.2053 14.7851 31.7346 15.4604 31.6345L20.6049 30.8884C21.1107 30.8133 21.5871 30.4603 21.813 30.0021L24.217 25.0798C24.4871 24.529 25.0249 24.1985 25.5799 24.181C26.1717 24.1634 26.7512 24.4914 27.036 25.0798L29.3885 29.9245C29.6193 30.4002 30.108 30.7081 30.6187 30.7832L35.8737 31.5444C36.4876 31.632 36.986 32.0751 37.1628 32.5634C37.3986 33.2168 37.2439 33.8803 36.7552 34.356Z" fill="white"/>
<path d="M51 11.9927L50.9902 15.9986H0.00982233L0 11.9902C0.0319226 9.78442 1.73855 8.00428 3.92402 8.00178L9.81005 7.99427V1.99037C9.81251 0.866207 10.7014 0.029968 11.7131 -7.65417e-05C12.7739 -0.0301211 13.7292 0.828651 13.7292 1.99037L13.7341 7.99677H37.2659V1.99037C37.2708 0.82114 38.231 -0.0326248 39.2844 -7.65417e-05C40.3894 0.0349754 41.1973 0.951333 41.1949 2.11806L41.1875 7.99677H47.0269C49.2737 7.99677 50.9607 9.77691 51 11.9927Z" fill="white"/>
</svg>
