<svg width="31" height="54" viewBox="0 0 31 54" fill="none" xmlns="http://www.w3.org/2000/svg">
<g clip-path="url(#clip0_111_86)">
<path d="M27.3795 0H3.6205C1.65556 0 0 1.59321 0 3.60902V50.3889C0 52.4068 1.65556 54 3.6205 54L27.4401 53.9937C29.4176 53.9915 31 52.3371 31 50.391V3.60902C31 1.59321 29.3444 0 27.3795 0ZM11.7457 2.62435H19.2564C19.4717 2.62435 19.7142 2.83143 19.7351 3.00681C19.7601 3.22656 19.595 3.42941 19.3086 3.50759H11.7394C11.5116 3.50759 11.2733 3.28573 11.2628 3.09344C11.2482 2.86735 11.474 2.62435 11.7457 2.62435ZM15.7968 52.1469C14.8624 52.3138 13.9385 51.6799 13.7462 50.7502C13.5434 49.7676 14.1204 48.7682 15.1844 48.5738C16.2421 48.3815 17.1242 49.1253 17.2705 50.0635C17.4273 51.0629 16.7793 51.9715 15.7968 52.1469ZM2.50634 47.2532V5.78753L28.4937 5.78119V47.2426L2.50634 47.2532Z" fill="white"/>
</g>
<defs>
<clipPath id="clip0_111_86">
<rect width="31" height="54" fill="white"/>
</clipPath>
</defs>
</svg>
